<svg width="58" height="58" viewBox="0 0 58 58" fill="none" xmlns="http://www.w3.org/2000/svg">
<rect width="58" height="58" fill="#FFE81D"/>
<path d="M13.528 25.312C13.864 24.688 14.344 24.2 14.968 23.848C15.608 23.48 16.368 23.296 17.248 23.296C18.304 23.296 19.256 23.576 20.104 24.136C20.952 24.68 21.616 25.48 22.096 26.536C22.592 27.576 22.84 28.808 22.84 30.232C22.84 31.656 22.592 32.896 22.096 33.952C21.616 34.992 20.952 35.792 20.104 36.352C19.256 36.896 18.304 37.168 17.248 37.168C16.368 37.168 15.608 36.992 14.968 36.64C14.344 36.272 13.864 35.776 13.528 35.152V43.48H8.2V23.464H13.528V25.312ZM17.44 30.232C17.44 29.512 17.256 28.952 16.888 28.552C16.52 28.152 16.048 27.952 15.472 27.952C14.896 27.952 14.424 28.152 14.056 28.552C13.688 28.952 13.504 29.512 13.504 30.232C13.504 30.952 13.688 31.512 14.056 31.912C14.424 32.312 14.896 32.512 15.472 32.512C16.048 32.512 16.52 32.312 16.888 31.912C17.256 31.512 17.44 30.952 17.44 30.232ZM30.5365 37.168C29.2565 37.168 28.1205 36.96 27.1285 36.544C26.1525 36.128 25.3765 35.552 24.8005 34.816C24.2245 34.08 23.8965 33.248 23.8165 32.32H28.9285C28.9925 32.72 29.1605 33.016 29.4325 33.208C29.7205 33.4 30.0805 33.496 30.5125 33.496C30.7845 33.496 31.0005 33.44 31.1605 33.328C31.3205 33.2 31.4005 33.048 31.4005 32.872C31.4005 32.568 31.2325 32.352 30.8965 32.224C30.5605 32.096 29.9925 31.952 29.1925 31.792C28.2165 31.6 27.4085 31.392 26.7685 31.168C26.1445 30.944 25.5925 30.56 25.1125 30.016C24.6485 29.472 24.4165 28.72 24.4165 27.76C24.4165 26.928 24.6325 26.176 25.0645 25.504C25.5125 24.816 26.1685 24.28 27.0325 23.896C27.8965 23.496 28.9445 23.296 30.1765 23.296C32.0005 23.296 33.4245 23.744 34.4485 24.64C35.4885 25.536 36.1125 26.704 36.3205 28.144H31.5925C31.5125 27.776 31.3445 27.496 31.0885 27.304C30.8325 27.096 30.4885 26.992 30.0565 26.992C29.7845 26.992 29.5765 27.048 29.4325 27.16C29.2885 27.256 29.2165 27.408 29.2165 27.616C29.2165 27.888 29.3845 28.096 29.7205 28.24C30.0565 28.368 30.5925 28.504 31.3285 28.648C32.3045 28.84 33.1285 29.056 33.8005 29.296C34.4725 29.536 35.0565 29.952 35.5525 30.544C36.0485 31.12 36.2965 31.92 36.2965 32.944C36.2965 33.744 36.0645 34.464 35.6005 35.104C35.1365 35.744 34.4645 36.248 33.5845 36.616C32.7205 36.984 31.7045 37.168 30.5365 37.168ZM37.6909 30.232C37.6909 28.808 37.9309 27.576 38.4109 26.536C38.9069 25.48 39.5789 24.68 40.4269 24.136C41.2749 23.576 42.2269 23.296 43.2829 23.296C44.1629 23.296 44.9149 23.48 45.5389 23.848C46.1789 24.2 46.6669 24.688 47.0029 25.312V19.24H52.3309V37H47.0029V35.152C46.6669 35.776 46.1789 36.272 45.5389 36.64C44.9149 36.992 44.1629 37.168 43.2829 37.168C42.2269 37.168 41.2749 36.896 40.4269 36.352C39.5789 35.792 38.9069 34.992 38.4109 33.952C37.9309 32.896 37.6909 31.656 37.6909 30.232ZM47.0269 30.232C47.0269 29.512 46.8429 28.952 46.4749 28.552C46.1069 28.152 45.6349 27.952 45.0589 27.952C44.4829 27.952 44.0109 28.152 43.6429 28.552C43.2749 28.952 43.0909 29.512 43.0909 30.232C43.0909 30.952 43.2749 31.512 43.6429 31.912C44.0109 32.312 44.4829 32.512 45.0589 32.512C45.6349 32.512 46.1069 32.312 46.4749 31.912C46.8429 31.512 47.0269 30.952 47.0269 30.232Z" fill="black"/>
</svg>
