<svg width="56" height="56" viewBox="0 0 56 56" fill="none" xmlns="http://www.w3.org/2000/svg">
<rect width="56" height="56" fill="#FFDD00"/>
<path d="M14.44 25.26C14.72 24.74 15.12 24.3333 15.64 24.04C16.1733 23.7333 16.8067 23.58 17.54 23.58C18.42 23.58 19.2133 23.8133 19.92 24.28C20.6267 24.7333 21.18 25.4 21.58 26.28C21.9933 27.1467 22.2 28.1733 22.2 29.36C22.2 30.5467 21.9933 31.58 21.58 32.46C21.18 33.3267 20.6267 33.9933 19.92 34.46C19.2133 34.9133 18.42 35.14 17.54 35.14C16.8067 35.14 16.1733 34.9933 15.64 34.7C15.12 34.3933 14.72 33.98 14.44 33.46V40.4H10V23.72H14.44V25.26ZM17.7 29.36C17.7 28.76 17.5467 28.2933 17.24 27.96C16.9333 27.6267 16.54 27.46 16.06 27.46C15.58 27.46 15.1867 27.6267 14.88 27.96C14.5733 28.2933 14.42 28.76 14.42 29.36C14.42 29.96 14.5733 30.4267 14.88 30.76C15.1867 31.0933 15.58 31.26 16.06 31.26C16.54 31.26 16.9333 31.0933 17.24 30.76C17.5467 30.4267 17.7 29.96 17.7 29.36ZM28.6138 35.14C27.5471 35.14 26.6004 34.9667 25.7738 34.62C24.9604 34.2733 24.3138 33.7933 23.8338 33.18C23.3538 32.5667 23.0804 31.8733 23.0138 31.1H27.2738C27.3271 31.4333 27.4671 31.68 27.6938 31.84C27.9338 32 28.2338 32.08 28.5938 32.08C28.8204 32.08 29.0004 32.0333 29.1338 31.94C29.2671 31.8333 29.3338 31.7067 29.3338 31.56C29.3338 31.3067 29.1938 31.1267 28.9138 31.02C28.6338 30.9133 28.1604 30.7933 27.4938 30.66C26.6804 30.5 26.0071 30.3267 25.4738 30.14C24.9538 29.9533 24.4938 29.6333 24.0938 29.18C23.7071 28.7267 23.5138 28.1 23.5138 27.3C23.5138 26.6067 23.6938 25.98 24.0538 25.42C24.4271 24.8467 24.9738 24.4 25.6938 24.08C26.4138 23.7467 27.2871 23.58 28.3138 23.58C29.8338 23.58 31.0204 23.9533 31.8738 24.7C32.7404 25.4467 33.2604 26.42 33.4338 27.62H29.4938C29.4271 27.3133 29.2871 27.08 29.0738 26.92C28.8604 26.7467 28.5738 26.66 28.2138 26.66C27.9871 26.66 27.8138 26.7067 27.6938 26.8C27.5738 26.88 27.5138 27.0067 27.5138 27.18C27.5138 27.4067 27.6538 27.58 27.9338 27.7C28.2138 27.8067 28.6604 27.92 29.2738 28.04C30.0871 28.2 30.7738 28.38 31.3338 28.58C31.8938 28.78 32.3804 29.1267 32.7938 29.62C33.2071 30.1 33.4138 30.7667 33.4138 31.62C33.4138 32.2867 33.2204 32.8867 32.8338 33.42C32.4471 33.9533 31.8871 34.3733 31.1538 34.68C30.4338 34.9867 29.5871 35.14 28.6138 35.14ZM34.5758 29.36C34.5758 28.1733 34.7758 27.1467 35.1758 26.28C35.5891 25.4 36.1491 24.7333 36.8558 24.28C37.5624 23.8133 38.3558 23.58 39.2358 23.58C39.9691 23.58 40.5958 23.7333 41.1158 24.04C41.6491 24.3333 42.0558 24.74 42.3358 25.26V20.2H46.7758V35H42.3358V33.46C42.0558 33.98 41.6491 34.3933 41.1158 34.7C40.5958 34.9933 39.9691 35.14 39.2358 35.14C38.3558 35.14 37.5624 34.9133 36.8558 34.46C36.1491 33.9933 35.5891 33.3267 35.1758 32.46C34.7758 31.58 34.5758 30.5467 34.5758 29.36ZM42.3558 29.36C42.3558 28.76 42.2024 28.2933 41.8958 27.96C41.5891 27.6267 41.1958 27.46 40.7158 27.46C40.2358 27.46 39.8424 27.6267 39.5358 27.96C39.2291 28.2933 39.0758 28.76 39.0758 29.36C39.0758 29.96 39.2291 30.4267 39.5358 30.76C39.8424 31.0933 40.2358 31.26 40.7158 31.26C41.1958 31.26 41.5891 31.0933 41.8958 30.76C42.2024 30.4267 42.3558 29.96 42.3558 29.36Z" fill="black"/>
</svg>
